<svg xmlns="http://www.w3.org/2000/svg" viewBox="0 0 100 100">
  <rect width="100" height="100" rx="20" fill="white"/>
  <path d="M90 51c0-2.7-.2-5.3-.7-7.8H50v14.7h22.5c-1 5.2-4 9.6-8.5 12.6v10.4h13.7C85.7 73.6 90 63.1 90 51z" fill="#4285F4"/>
  <path d="M50 92c11.3 0 20.8-3.7 27.7-10.1L64 71.5c-3.7 2.5-8.5 4-14 4-10.8 0-19.9-7.3-23.2-17.1H12.7v10.7C19.5 83.7 33.9 92 50 92z" fill="#34A853"/>
  <path d="M26.8 58.4c-.8-2.5-1.3-5.2-1.3-8s.5-5.5 1.3-8V31.7H12.7C9.3 38.3 8 44.9 8 51s1.3 12.7 4.7 19.3l14.1-11.9z" fill="#FBBC05"/>
  <path d="M50 26.9c6.1 0 11.6 2.1 15.9 6.2l11.9-11.9C70.8 14.4 61.3 10 50 10 33.9 10 19.5 18.3 12.7 31.7l14.1 10.7C30.1 34.2 39.2 26.9 50 26.9z" fill="#EA4335"/>
</svg>
