<svg xmlns="http://www.w3.org/2000/svg" viewBox="0 0 100 100">
  <rect width="100" height="100" rx="20" fill="#010101"/>
  <path d="M58 20h-9v41a9 9 0 1 1-9-9v-9a18 18 0 1 0 18 18V38a27 27 0 0 0 16 5v-9a18 18 0 0 1-16-14z" fill="white"/>
  <path d="M59 20h-9v41a9 9 0 1 1-9-9v-9a18 18 0 1 0 18 18V38a27 27 0 0 0 16 5v-9a18 18 0 0 1-16-14z" fill="none" stroke="#69C9D0" stroke-width="1.5"/>
  <path d="M57 20h-9v41a9 9 0 1 1-9-9v-9a18 18 0 1 0 18 18V38a27 27 0 0 0 16 5v-9a18 18 0 0 1-16-14z" fill="none" stroke="#EE1D52" stroke-width="1" stroke-dasharray="2,60"/>
</svg>
