<svg xmlns="http://www.w3.org/2000/svg" viewBox="0 0 100 100">
  <rect width="100" height="100" rx="20" fill="#25D366"/>
  <path d="M50 18C32.3 18 18 32.3 18 50c0 5.8 1.6 11.2 4.4 15.8L18 82l16.6-4.3C39.1 80.4 44.4 82 50 82c17.7 0 32-14.3 32-32S67.7 18 50 18zm16.7 43.8c-.7 1.9-3.5 3.6-5.7 4-1.5.3-3.4.5-9.9-2.1-8.3-3.3-13.6-11.7-14-12.2-.4-.5-3.3-4.4-3.3-8.4s2.1-6 2.8-6.8c.7-.8 1.6-1 2.1-1h1.5c.5 0 1.1-.1 1.7 1.3.7 1.6 2.3 5.6 2.5 6 .2.4.3.9.1 1.4-.2.5-.4.8-.8 1.2-.4.5-.8.9-1.1 1.2-.4.4-.8.8-.3 1.5.4.8 1.9 3.1 4.1 5 2.8 2.5 5.2 3.3 5.9 3.7.8.4 1.2.3 1.7-.2.5-.5 2-2.3 2.5-3.1.5-.8 1.1-.7 1.8-.4.8.3 4.8 2.3 5.6 2.7.8.4 1.4.6 1.6 1 .2.3-.1 2.2-.8 4.2z" fill="white"/>
</svg>
