<svg xmlns="http://www.w3.org/2000/svg" viewBox="0 0 100 100">
  <rect width="100" height="100" rx="20" fill="#FF0000"/>
  <path d="M80 37s-.8-5.5-3.3-7.9c-3.1-3.3-6.6-3.3-8.2-3.5C60.5 25 50 25 50 25s-10.5 0-18.5.6c-1.6.2-5.1.2-8.2 3.5C20.8 31.5 20 37 20 37S19 43.6 19 50.2v6.2c0 6.6 1 13.2 1 13.2s.8 5.5 3.3 7.9c3.1 3.3 7.3 3.2 9.1 3.5C38.6 81.5 50 82 50 82s10.5 0 18.5-.7c1.6-.2 5.1-.2 8.2-3.5 2.5-2.4 3.3-7.9 3.3-7.9s1-6.6 1-13.2v-6.2C81 43.6 80 37 80 37zM43 62V38l22 12-22 12z" fill="white"/>
</svg>
